<mxfile host="Electron" agent="Mozilla/5.0 (Windows NT 10.0; Win64; x64) AppleWebKit/537.36 (KHTML, like Gecko) draw.io/24.7.17 Chrome/128.0.6613.36 Electron/32.0.1 Safari/537.36" version="24.7.17">
  <diagram name="Página-1" id="gZphK9QelMourTjDmYUb">
    <mxGraphModel dx="1120" dy="524" grid="1" gridSize="10" guides="1" tooltips="1" connect="1" arrows="1" fold="1" page="1" pageScale="1" pageWidth="1920" pageHeight="1200" math="0" shadow="0">
      <root>
        <mxCell id="0" />
        <mxCell id="1" parent="0" />
        <mxCell id="q7x4hh1Xrs1UEdXplfxt-33" value="" style="rounded=0;whiteSpace=wrap;html=1;verticalAlign=top;" parent="1" vertex="1">
          <mxGeometry x="350" y="260" width="200" height="280" as="geometry" />
        </mxCell>
        <mxCell id="q7x4hh1Xrs1UEdXplfxt-4" value="AMAZON S3&lt;br&gt;(BUCKETS)" style="rounded=0;whiteSpace=wrap;html=1;verticalAlign=top;fillColor=#dae8fc;strokeColor=#6c8ebf;" parent="1" vertex="1">
          <mxGeometry x="550" y="220" width="780" height="320" as="geometry" />
        </mxCell>
        <mxCell id="q7x4hh1Xrs1UEdXplfxt-5" value="" style="rounded=0;whiteSpace=wrap;html=1;verticalAlign=top;" parent="1" vertex="1">
          <mxGeometry x="550" y="260" width="260" height="280" as="geometry" />
        </mxCell>
        <mxCell id="q7x4hh1Xrs1UEdXplfxt-6" value="" style="rounded=0;whiteSpace=wrap;html=1;verticalAlign=top;" parent="1" vertex="1">
          <mxGeometry x="810" y="260" width="260" height="280" as="geometry" />
        </mxCell>
        <mxCell id="q7x4hh1Xrs1UEdXplfxt-7" value="" style="rounded=0;whiteSpace=wrap;html=1;verticalAlign=top;" parent="1" vertex="1">
          <mxGeometry x="1070" y="260" width="260" height="280" as="geometry" />
        </mxCell>
        <mxCell id="q7x4hh1Xrs1UEdXplfxt-8" value="&lt;div style=&quot;font-size: 10px;&quot;&gt;EXTRACT&lt;/div&gt;" style="shape=step;perimeter=stepPerimeter;whiteSpace=wrap;html=1;fixedSize=1;fontSize=10;" parent="1" vertex="1">
          <mxGeometry x="510" y="370" width="90" height="40" as="geometry" />
        </mxCell>
        <mxCell id="q7x4hh1Xrs1UEdXplfxt-9" value="CAMADA&lt;br&gt;BRONZE" style="rounded=0;whiteSpace=wrap;html=1;fillColor=#ffe6cc;strokeColor=#d79b00;" parent="1" vertex="1">
          <mxGeometry x="550" y="260" width="260" height="40" as="geometry" />
        </mxCell>
        <mxCell id="q7x4hh1Xrs1UEdXplfxt-10" value="CAMADA&lt;div&gt;PRATA&lt;/div&gt;" style="rounded=0;whiteSpace=wrap;html=1;fillColor=#f5f5f5;fontColor=#333333;strokeColor=#666666;" parent="1" vertex="1">
          <mxGeometry x="810" y="260" width="260" height="40" as="geometry" />
        </mxCell>
        <mxCell id="q7x4hh1Xrs1UEdXplfxt-11" value="CAMADA&lt;div&gt;OURO&lt;/div&gt;" style="rounded=0;whiteSpace=wrap;html=1;fillColor=#fff2cc;strokeColor=#d6b656;" parent="1" vertex="1">
          <mxGeometry x="1070" y="260" width="260" height="40" as="geometry" />
        </mxCell>
        <mxCell id="q7x4hh1Xrs1UEdXplfxt-12" value="" style="strokeWidth=2;html=1;shape=mxgraph.flowchart.database;whiteSpace=wrap;" parent="1" vertex="1">
          <mxGeometry x="625" y="332.5" width="110" height="120" as="geometry" />
        </mxCell>
        <mxCell id="q7x4hh1Xrs1UEdXplfxt-13" value="DADO&lt;div&gt;BRUTO&lt;/div&gt;" style="text;html=1;align=center;verticalAlign=middle;whiteSpace=wrap;rounded=0;" parent="1" vertex="1">
          <mxGeometry x="630" y="370" width="100" height="60" as="geometry" />
        </mxCell>
        <mxCell id="q7x4hh1Xrs1UEdXplfxt-15" value="&lt;div style=&quot;font-size: 8px;&quot;&gt;TRATATIVA&lt;/div&gt;" style="shape=step;perimeter=stepPerimeter;whiteSpace=wrap;html=1;fixedSize=1;fontSize=8;" parent="1" vertex="1">
          <mxGeometry x="770" y="370" width="100" height="50" as="geometry" />
        </mxCell>
        <mxCell id="q7x4hh1Xrs1UEdXplfxt-16" value="IBGE&amp;nbsp;&lt;div&gt;BASE DE DADOS&lt;/div&gt;" style="rounded=0;whiteSpace=wrap;html=1;fillColor=#d5e8d4;strokeColor=#82b366;" parent="1" vertex="1">
          <mxGeometry x="350" y="220" width="200" height="40" as="geometry" />
        </mxCell>
        <mxCell id="q7x4hh1Xrs1UEdXplfxt-17" value="" style="strokeWidth=2;html=1;shape=mxgraph.flowchart.database;whiteSpace=wrap;" parent="1" vertex="1">
          <mxGeometry x="885" y="330" width="110" height="120" as="geometry" />
        </mxCell>
        <mxCell id="q7x4hh1Xrs1UEdXplfxt-20" value="LIMPEZA&amp;nbsp;&lt;div&gt;E&amp;nbsp;&lt;div&gt;PADRONIZAÇÃO&lt;/div&gt;&lt;/div&gt;" style="text;html=1;align=center;verticalAlign=middle;whiteSpace=wrap;rounded=0;fontSize=9;" parent="1" vertex="1">
          <mxGeometry x="880" y="370" width="120" height="60" as="geometry" />
        </mxCell>
        <mxCell id="q7x4hh1Xrs1UEdXplfxt-21" value="&lt;div style=&quot;font-size: 10px;&quot;&gt;AGRAGAÇÃO&lt;/div&gt;" style="shape=step;perimeter=stepPerimeter;whiteSpace=wrap;html=1;fixedSize=1;fontSize=10;" parent="1" vertex="1">
          <mxGeometry x="1020" y="370" width="110" height="50" as="geometry" />
        </mxCell>
        <mxCell id="q7x4hh1Xrs1UEdXplfxt-22" value="" style="strokeWidth=2;html=1;shape=mxgraph.flowchart.database;whiteSpace=wrap;" parent="1" vertex="1">
          <mxGeometry x="1145" y="330" width="110" height="120" as="geometry" />
        </mxCell>
        <mxCell id="q7x4hh1Xrs1UEdXplfxt-23" value="AGREGATED DATA&lt;br&gt;KPIs" style="text;html=1;align=center;verticalAlign=middle;whiteSpace=wrap;rounded=0;" parent="1" vertex="1">
          <mxGeometry x="1148.75" y="365" width="102.5" height="70" as="geometry" />
        </mxCell>
        <mxCell id="q7x4hh1Xrs1UEdXplfxt-24" value="" style="rounded=0;whiteSpace=wrap;html=1;" parent="1" vertex="1">
          <mxGeometry x="1330" y="220" width="210" height="320" as="geometry" />
        </mxCell>
        <mxCell id="q7x4hh1Xrs1UEdXplfxt-25" value="&lt;div&gt;CONSUMO DOS&amp;nbsp;&lt;/div&gt;&lt;div&gt;DADOS&lt;/div&gt;" style="rounded=0;whiteSpace=wrap;html=1;verticalAlign=top;fillColor=#dae8fc;strokeColor=#6c8ebf;" parent="1" vertex="1">
          <mxGeometry x="1330" y="220" width="210" height="40" as="geometry" />
        </mxCell>
        <mxCell id="q7x4hh1Xrs1UEdXplfxt-26" value="" style="shape=image;verticalLabelPosition=bottom;labelBackgroundColor=default;verticalAlign=top;aspect=fixed;imageAspect=0;image=https://logos-world.net/wp-content/uploads/2022/02/Microsoft-Power-BI-Symbol.png;" parent="1" vertex="1">
          <mxGeometry x="1346.11" y="332.5" width="177.78" height="100" as="geometry" />
        </mxCell>
        <mxCell id="q7x4hh1Xrs1UEdXplfxt-27" value="&lt;div style=&quot;font-size: 10px;&quot;&gt;ACESSO&lt;/div&gt;&lt;div style=&quot;font-size: 10px;&quot;&gt;AOS&lt;/div&gt;&lt;div style=&quot;font-size: 10px;&quot;&gt;DADOS&lt;/div&gt;" style="shape=step;perimeter=stepPerimeter;whiteSpace=wrap;html=1;fixedSize=1;fontSize=10;" parent="1" vertex="1">
          <mxGeometry x="1280" y="365" width="100" height="50" as="geometry" />
        </mxCell>
        <mxCell id="q7x4hh1Xrs1UEdXplfxt-35" value="" style="shape=image;verticalLabelPosition=bottom;labelBackgroundColor=default;verticalAlign=top;aspect=fixed;imageAspect=0;image=https://www.ripsa.org.br/wp-content/uploads/2025/08/18-IBGE-Logo.png;" parent="1" vertex="1">
          <mxGeometry x="375" y="312.5" width="150" height="150" as="geometry" />
        </mxCell>
        <mxCell id="q7x4hh1Xrs1UEdXplfxt-38" value="Dicionario de perguntas" style="text;whiteSpace=wrap;html=1;align=center;verticalAlign=top;fontFamily=Verdana;" parent="1" vertex="1">
          <mxGeometry x="370" y="470" width="160" height="40" as="geometry" />
        </mxCell>
        <mxCell id="q7x4hh1Xrs1UEdXplfxt-40" value="&lt;span style=&quot;background-color: initial;&quot;&gt;1.EXTREÇÃO DE DADOS&lt;/span&gt;&lt;br&gt;&lt;span style=&quot;background-color: initial;&quot;&gt;2.SALVAMENTO EM BUCKETS&lt;/span&gt;" style="text;whiteSpace=wrap;html=1;align=left;verticalAlign=top;fontFamily=Verdana;" parent="1" vertex="1">
          <mxGeometry x="570" y="470" width="240" height="46.25" as="geometry" />
        </mxCell>
        <mxCell id="q7x4hh1Xrs1UEdXplfxt-43" value="7.VIZUALIÇÃO DOS DADOS&lt;div&gt;8.GERAÇÃO DE INSIGHTS&lt;/div&gt;" style="text;whiteSpace=wrap;html=1;align=left;verticalAlign=top;fontFamily=Verdana;" parent="1" vertex="1">
          <mxGeometry x="1337.5" y="470" width="195" height="40" as="geometry" />
        </mxCell>
        <mxCell id="MAfjRVw-pzo0F1MgkMgY-1" value="3.LIMPEZA DOS DADOS&lt;div&gt;4.FILTRO POR TRIMESTRE&lt;/div&gt;" style="text;whiteSpace=wrap;html=1;align=left;verticalAlign=top;fontFamily=Verdana;" parent="1" vertex="1">
          <mxGeometry x="810" y="471.25" width="250" height="37.5" as="geometry" />
        </mxCell>
        <mxCell id="MAfjRVw-pzo0F1MgkMgY-2" value="5. APLICAÇÃO DA REGRA DE NEGOCIO&lt;br&gt;6. SIMPLIFICAÇÃO DA BASE DE DADOS" style="text;whiteSpace=wrap;html=1;align=left;verticalAlign=top;fontFamily=Verdana;" parent="1" vertex="1">
          <mxGeometry x="1077.5" y="470" width="245" height="37.5" as="geometry" />
        </mxCell>
      </root>
    </mxGraphModel>
  </diagram>
</mxfile>
